<svg xmlns="http://www.w3.org/2000/svg" width="44" height="45"><path fill="#093C57" fill-rule="evenodd" d="M42.85 43.917l-1.916.894a2.016 2.016 0 0 1-1.537.067 2.017 2.017 0 0 1-1.133-1.042l-3.846-8.276-22.1 7.888a1.04 1.04 0 0 1-.338.058 1.01 1.01 0 0 1-.947-.669L.056 11.932a1.009 1.009 0 0 1 .609-1.286l11.121-3.969V1.006c0-.557.449-1.006 1.005-1.006h27.885c.555 0 1.004.449 1.004 1.006v32.805a.994.994 0 0 1-.856.976l2.998 6.455a2.017 2.017 0 0 1-.972 2.675zM11.786 33.812V8.816l-9.5 3.39 10.303 29.008 17.919-6.396H12.791c-.556 0-1.005-.45-1.005-1.006zM39.671 2.013H13.795v30.792h19.344l-2.464-5.304a2.063 2.063 0 0 1-.151-.468l-.826-4.289a2.017 2.017 0 0 1 1.125-2.207 2.003 2.003 0 0 1 2.41.558l2.744 3.396c.102.127.189.268.259.418l3.435 7.395V2.013zm-7.37 23.62l1.46-.681-2.09-2.589.63 3.27zm2.538 1.038l-.001.001-1.918.892 7.165 15.422 1.916-.894-7.162-15.421zm-.225-10.08h-9.698a1.006 1.006 0 1 1 0-2.013h9.698c.556 0 1.004.45 1.004 1.006 0 .557-.448 1.007-1.004 1.007zm0-8.503H18.852c-.555 0-1.005-.45-1.003-1.007 0-.557.448-1.007 1.003-1.007h15.762c.555 0 1.004.45 1.004 1.007 0 .557-.449 1.007-1.004 1.007zM18.852 23.083h8.488a1.006 1.006 0 0 1 0 2.014h-8.488c-.555 0-1.003-.45-1.003-1.007 0-.556.448-1.007 1.003-1.007z"/></svg>