<svg xmlns="http://www.w3.org/2000/svg" width="44" height="27"><path fill="#093C57" fill-rule="evenodd" d="M21.475.077L.914 8.277a1.483 1.483 0 0 0-.916 1.349c0 .579.381 1.139.916 1.348l6.739 2.684v7.068c0 1.199.706 2.027 1.524 2.713.819.687 1.872 1.276 3.138 1.794 2.534 1.035 5.922 1.763 9.684 1.763 3.762 0 7.149-.728 9.683-1.763 1.267-.518 2.32-1.107 3.138-1.794.819-.686 1.524-1.514 1.524-2.713v-7.068l6.74-2.684c.534-.209.916-.769.916-1.348 0-.58-.382-1.14-.916-1.349L22.522.077c-.388-.143-.796-.08-1.047 0zm.524 2.909L38.66 9.633l-16.661 6.632L5.338 9.633l16.661-6.647zM10.523 14.803l10.952 4.371c.332.131.715.131 1.047 0l10.953-4.371v5.923c0-.189-.009.076-.493.483-.486.407-1.324.905-2.391 1.341-2.134.872-5.202 1.552-8.592 1.552-3.391 0-6.459-.68-8.593-1.552-1.066-.436-1.905-.934-2.391-1.341-.485-.407-.492-.672-.492-.483v-5.923z"/></svg>