<svg xmlns="http://www.w3.org/2000/svg" width="45.5" height="38.5"><path fill="#093C57" fill-rule="evenodd" stroke="#093C57" d="M42.142 37.5H2.856c-1.335 0-2.358-1.024-2.358-2.362V7.585c0-1.338 1.023-2.362 2.358-2.362h13.358c0-2.598 2.12-4.723 4.713-4.723h3.143c2.594 0 4.715 2.125 4.715 4.723h13.357c1.335 0 2.358 1.024 2.358 2.362v27.553c0 1.338-1.023 2.362-2.358 2.362zM24.07 2.074h-3.143a3.155 3.155 0 0 0-3.143 3.149h9.428a3.154 3.154 0 0 0-3.142-3.149zm18.858 5.511c0-.473-.314-.788-.786-.788H2.856c-.471 0-.786.315-.786.788v8.659h17.208v-2.361h6.364v2.361h17.286V7.585zM20.85 15.457v3.149h3.22v-3.149h-3.22zm22.078 2.362H25.642v2.362h-6.364v-2.362H2.07v17.319c0 .472.315.787.786.787h39.286c.472 0 .786-.315.786-.787V17.819z"/></svg>