<svg xmlns="http://www.w3.org/2000/svg" width="38" height="38"><path fill="#093C57" fill-rule="evenodd" d="M18.999 0c-10.483 0-19 8.516-19 19 0 10.483 8.517 18.999 19 18.999s19-8.516 19-18.999c0-10.484-8.517-19-19-19zm0 1.689c9.57 0 17.31 7.74 17.31 17.311 0 9.57-7.74 17.311-17.31 17.311C9.428 36.311 1.688 28.57 1.688 19c0-9.571 7.74-17.311 17.311-17.311zm-6.756 8.866a2.956 2.956 0 1 0 .001 5.909 2.956 2.956 0 0 0-.001-5.909zm13.511 0a2.956 2.956 0 0 0 0 5.911 2.956 2.956 0 1 0 0-5.911zm2.52 12.601a.845.845 0 0 0-.686.435c-1.901 2.844-5.036 4.697-8.589 4.697-3.554 0-6.688-1.853-8.59-4.697a.841.841 0 1 0-1.398.937c2.191 3.278 5.848 5.449 9.988 5.449 4.141 0 7.796-2.171 9.989-5.449a.847.847 0 0 0-.714-1.372z"/></svg>