<svg xmlns="http://www.w3.org/2000/svg" width="18.55" height="20.55"><path fill="#0A3C56" fill-rule="evenodd" stroke="#FFF" stroke-width=".37" d="M13.04 19.18H5.32a4.11 4.11 0 0 1-4.14-4.1V6.92a4.1 4.1 0 0 1 3.86-4.07V2a.8.8 0 0 1 .83-.82.8.8 0 0 1 .82.82v.82h4.97V2a.8.8 0 0 1 .83-.82.8.8 0 0 1 .82.82v.84a4.1 4.1 0 0 1 3.87 4.07v8.18a4.1 4.1 0 0 1-4.14 4.09zm2.48-12.27c0-1.26-.96-2.3-2.2-2.43v.8a.8.8 0 0 1-.83.81.81.81 0 0 1-.83-.82v-.82H6.7v.82a.8.8 0 0 1-.82.82.81.81 0 0 1-.83-.82v-.79a2.46 2.46 0 0 0-2.2 2.43v.81h12.68v-.81zm0 2.45H2.83v5.73c0 1.36 1.1 2.45 2.49 2.45h7.72a2.46 2.46 0 0 0 2.48-2.45V9.36zm-4.13 6.28H6.97a.8.8 0 0 1-.83-.82.8.8 0 0 1 .83-.82h4.42a.8.8 0 0 1 .82.82.8.8 0 0 1-.82.81zm0-2.73H6.97a.8.8 0 0 1-.83-.82.8.8 0 0 1 .83-.82h4.42a.8.8 0 0 1 .82.82.8.8 0 0 1-.82.82z"/></svg>