<svg xmlns="http://www.w3.org/2000/svg" width="18" height="18"><path fill="#43B59B" fill-rule="evenodd" d="M8.997,17.994 C13.958,17.994 17.994,13.958 17.994,8.997 C17.994,4.036 13.958,-0.000 8.997,-0.000 C4.036,-0.000 -0.000,4.036 -0.000,8.997 C-0.000,13.958 4.036,17.994 8.997,17.994 ZM1.195,9.584 L4.118,9.584 C4.154,10.655 4.290,11.691 4.517,12.651 C3.828,12.893 3.193,13.191 2.632,13.541 C1.821,12.409 1.305,11.052 1.195,9.584 ZM2.632,4.453 C3.193,4.803 3.828,5.101 4.517,5.342 C4.290,6.303 4.154,7.339 4.118,8.410 L1.195,8.410 C1.305,6.942 1.821,5.585 2.632,4.453 ZM16.799,8.410 L13.876,8.410 C13.840,7.339 13.704,6.303 13.476,5.342 C14.166,5.101 14.800,4.803 15.362,4.453 C16.173,5.585 16.689,6.942 16.799,8.410 ZM15.362,13.541 C14.800,13.191 14.166,12.893 13.476,12.651 C13.704,11.691 13.840,10.651 13.876,9.580 L16.799,9.580 C16.689,11.048 16.173,12.409 15.362,13.541 ZM8.410,11.943 C7.447,11.980 6.515,12.108 5.644,12.319 C5.446,11.465 5.326,10.541 5.292,9.584 L8.410,9.584 L8.410,11.943 ZM8.410,13.117 L8.410,16.712 C7.199,16.267 6.382,14.674 5.963,13.447 C6.731,13.265 7.555,13.152 8.410,13.117 ZM9.584,16.712 L9.584,13.117 C10.439,13.152 11.263,13.265 12.030,13.447 C11.613,14.674 10.796,16.267 9.584,16.712 ZM9.584,11.943 L9.584,9.580 L12.702,9.580 C12.668,10.537 12.548,11.465 12.350,12.319 C11.479,12.108 10.547,11.980 9.584,11.943 ZM12.702,8.410 L9.584,8.410 L9.584,6.051 C10.547,6.014 11.479,5.886 12.350,5.675 C12.548,6.529 12.668,7.452 12.702,8.410 ZM9.584,4.877 L9.584,1.282 C10.795,1.726 11.612,3.320 12.030,4.547 C11.263,4.729 10.439,4.842 9.584,4.877 ZM8.410,1.282 L8.410,4.877 C7.555,4.842 6.731,4.729 5.963,4.547 C6.381,3.320 7.198,1.727 8.410,1.282 ZM8.410,6.051 L8.410,8.410 L5.292,8.410 C5.326,7.452 5.446,6.529 5.644,5.675 C6.515,5.886 7.447,6.014 8.410,6.051 ZM3.394,14.451 C3.829,14.192 4.315,13.968 4.838,13.780 C5.126,14.639 5.529,15.513 6.072,16.253 C5.056,15.842 4.146,15.224 3.394,14.451 ZM11.922,16.253 C12.464,15.513 12.867,14.639 13.156,13.780 C13.679,13.968 14.165,14.192 14.600,14.451 C13.848,15.224 12.938,15.842 11.922,16.253 ZM14.600,3.543 C14.165,3.801 13.679,4.026 13.156,4.214 C12.867,3.355 12.464,2.480 11.922,1.741 C12.938,2.152 13.848,2.770 14.600,3.543 ZM6.072,1.741 C5.529,2.480 5.126,3.355 4.838,4.214 C4.314,4.026 3.829,3.801 3.394,3.543 C4.146,2.770 5.056,2.152 6.072,1.741 Z"/></svg>