<svg xmlns="http://www.w3.org/2000/svg" width="25" height="26"><path fill="#093C57" fill-rule="evenodd" d="M21 18.5c.8-.5 1.5-1 2-1.7.7-.8 1.1-1.6 1.5-2.6a11.2 11.2 0 0 0 0-6.5 10 10 0 0 0-3.1-4.9A11.4 11.4 0 0 0 16 .3a14.2 14.2 0 0 0-6.5.2 13.4 13.4 0 0 0-5.8 3.3A13.2 13.2 0 0 0 .5 9.4a13.8 13.8 0 0 0 .6 9A11.9 11.9 0 0 0 8.3 25a18.8 18.8 0 0 0 10.7.2c1.6-.4 3-1 4.1-1.8l-.4-1c0-.3-.2-.4-.4-.5l-.6.2c-1 .5-2 1-3.4 1.3a17.3 17.3 0 0 1-9-.1 10 10 0 0 1-6.1-5.6A12.1 12.1 0 0 1 3 8.4a10.8 10.8 0 0 1 10-6.6c1.4 0 2.6.2 3.8.6 1.2.3 2.3 1 3.1 1.7.9.7 1.6 1.7 2 2.8.6 1.1.8 2.4.8 4 0 .9 0 1.7-.3 2.5-.2.8-.5 1.4-.9 2-.4.6-.8 1-1.3 1.3a3 3 0 0 1-2.5.3c-.3-.1-.6-.3-.7-.6-.2-.3-.3-.7-.3-1.2l.3-2 1.6-5.9a8.2 8.2 0 0 0-3.6-.7 9 9 0 0 0-3.7.7c-1 .5-2 1.1-2.7 1.9a7.7 7.7 0 0 0-2 7c.2.6.5 1 .8 1.5.3.4.7.7 1.2 1l1.8.2a5.5 5.5 0 0 0 4.6-2.4c.1.8.5 1.5 1 1.9.6.4 1.3.6 2.2.6 1 0 1.8-.2 2.6-.6zm-11.6-2a3 3 0 0 1-.5-2c0-.7.1-1.4.4-2.2a6.2 6.2 0 0 1 3-3.2c.7-.3 1.5-.5 2.3-.5l1.5.1-1.3 4.8a7 7 0 0 1-.7 1.8c-.3.5-.6.8-1 1a3 3 0 0 1-1 .7l-1 .1c-.8 0-1.3-.2-1.7-.7z"/></svg>