<svg xmlns="http://www.w3.org/2000/svg" width="19" height="27"><path fill="#093C57" fill-rule="evenodd" d="M17.651,14.350 L10.301,26.611 C10.159,26.848 9.905,26.994 9.628,26.996 C9.625,26.996 9.624,26.996 9.621,26.996 C9.348,26.996 9.094,26.854 8.949,26.622 L1.406,14.478 C0.479,12.980 -0.011,11.255 -0.011,9.486 C-0.011,4.251 4.251,-0.008 9.490,-0.008 C14.728,-0.008 18.990,4.251 18.990,9.486 C18.990,11.202 18.527,12.884 17.651,14.350 ZM9.490,1.565 C5.124,1.565 1.562,5.124 1.562,9.486 C1.562,10.960 1.981,12.398 2.753,13.645 L9.610,24.685 L16.291,13.538 C17.022,12.317 17.412,10.916 17.412,9.486 C17.412,5.124 13.855,1.565 9.490,1.565 ZM9.490,14.232 C6.836,14.232 4.740,12.086 4.740,9.486 C4.740,6.869 6.871,4.739 9.490,4.739 C12.109,4.739 14.240,6.869 14.240,9.486 C14.240,12.058 12.177,14.232 9.490,14.232 ZM9.490,6.311 C7.744,6.311 6.313,7.741 6.313,9.486 C6.313,11.235 7.734,12.661 9.490,12.661 C11.273,12.661 12.662,11.210 12.662,9.486 C12.662,7.741 11.236,6.311 9.490,6.311 Z"/></svg>