<svg xmlns="http://www.w3.org/2000/svg" width="16" height="20"><path fill="#093C57" fill-rule="evenodd" d="M8 20c-3.89 0-8-1.22-8-3.49 0-1.12 1.03-2.09 2.92-2.73.32-.11.66.06.77.4.11.32-.06.67-.38.78-1.54.53-2.09 1.17-2.09 1.55 0 .91 2.64 2.24 6.78 2.24 4.13 0 6.76-1.33 6.76-2.24 0-.38-.54-1.02-2.08-1.55a.62.62 0 0 1-.39-.79c.11-.33.46-.5.78-.4 1.88.65 2.92 1.62 2.92 2.74C16 18.78 11.87 20 8 20zm0-3.75c-.2 0-.38-.1-.5-.26-.2-.28-5.05-6.95-5.05-10.37C2.45 2.52 4.94-.01 8-.01a5.59 5.59 0 0 1 5.54 5.63c0 3.42-4.84 10.1-5.04 10.37a.61.61 0 0 1-.5.26zm0-15a4.35 4.35 0 0 0-4.32 4.37c0 2.24 2.77 6.7 4.31 8.93 1.55-2.23 4.31-6.7 4.31-8.93A4.35 4.35 0 0 0 8 1.25zM5.53 5.62c0-1.38 1.1-2.5 2.46-2.5a2.48 2.48 0 0 1 2.46 2.5c0 1.38-1.1 2.5-2.45 2.5a2.48 2.48 0 0 1-2.47-2.5zm3.7 0c0-.69-.56-1.25-1.24-1.25-.67 0-1.23.56-1.23 1.25S7.32 6.87 8 6.87c.67 0 1.22-.56 1.22-1.25z"/></svg>