<svg xmlns="http://www.w3.org/2000/svg" width="15" height="20"><path fill="#1E2F56" fill-rule="evenodd" d="M11.51 14.98a52.51 52.51 0 0 1-3.37 4.29l-.65.73-.65-.73c-.07-.08-1.7-1.95-3.38-4.29C1.15 11.74-.02 9.24 0 7.57v-.38A7.45 7.45 0 0 1 7.7 0c4.13.1 7.4 3.5 7.3 7.58 0 1.67-1.17 4.17-3.48 7.41zM7.5 1.88a5.74 5.74 0 0 0-5.78 5.69c0 1.28 1.12 3.57 3.16 6.44 1 1.4 2 2.63 2.62 3.39 2.06-2.47 5.78-7.4 5.78-9.83 0-3.14-2.6-5.7-5.78-5.7zM5.33 7.66c0-1.18.97-2.13 2.16-2.13 1.2 0 2.16.95 2.16 2.13 0 1.17-.97 2.12-2.16 2.12-1.2 0-2.16-.95-2.16-2.12z"/></svg>