<svg xmlns="http://www.w3.org/2000/svg" width="22" height="22"><path fill="#1E2F56" fill-rule="evenodd" d="M18.68 13.98c-1.3-.46-3.19-1.5-4.44-.4l-1.28 1.07c-1.14-.74-2.2-1.6-3.16-2.56l-.1-.1a18.88 18.88 0 0 1-2.44-3l1.06-1.26c1.13-1.24.08-3.15-.39-4.43C7.1 1.02 6.86-.12 4.12 0c-.8-.04-1.6.35-2.15.92-4.72 4.94-.02 11.31 3.74 15.09 1.18 1.17 2.61-.23 1.42-1.41-2.33-2.34-5.2-5.75-5.11-9.25.02-.95.72-3.05 1.87-3.34L4.01 2h.17c.35-.02.76-.03 1.1.06.2.28 1.59 4.1 1.57 4.3L5.7 7.71c-.35.42-.54.95-.47 1.49.06.44.26.73.26.73a20.01 20.01 0 0 0 2.77 3.45l.2.2a22.06 22.06 0 0 0 3.54 2.82c.7.44 1.6.3 2.21-.21l1.33-1.11c.45-.05 3.9 1.25 4.42 1.63.06.59.02 1 .02 1v.17l-.02.1a.96.96 0 0 1-.29.47c-4.88 4.62-8.93-3.46-12.67.26-.95.95.47 2.36 1.42 1.41.58-.58 1.35-.68 2.67.14a9.67 9.67 0 0 0 5.55 1.59c2.02-.05 5.44-1.63 5.34-4.09.11-2.72-1.02-2.96-3.31-3.79zM5.04 19.52a1.24 1.24 0 1 0 0 2.47 1.24 1.24 0 1 0 0-2.46z"/></svg>