<svg xmlns="http://www.w3.org/2000/svg" width="30" height="30"><path fill="#093C57" fill-rule="evenodd" d="M29.3 14.2h-.1a.9.9 0 0 1-.9-.7A14.3 14.3 0 0 0 16.5 1.7a.9.9 0 1 1 .3-1.7A16.1 16.1 0 0 1 30 13.2c0 .5-.2 1-.7 1zM16.5 5.4a9.8 9.8 0 0 1 8 8c.1.5-.2 1-.6 1h-.2a.9.9 0 0 1-.8-.6A8 8 0 0 0 16.2 7a.8.8 0 0 1-.7-1c.1-.4.6-.7 1-.7zm-5.7 5.7l-1.4 1.4c.4.9.9 1.7 1.7 2.7 1.6 2 3.3 3.6 5.2 4.8l.6.3.5.3 2-2a3 3 0 0 1 2.2-1 3 3 0 0 1 2.1 1l3.5 3.5a3 3 0 0 1 1 2.1c0 .8-.3 1.6-1 2.2l-.8.9c-.4.3-.8.7-1 1.1h-.1a4.8 4.8 0 0 1-4 1.6c-2.3-.1-4.2-1-5.7-1.7A29.8 29.8 0 0 1 .8 12.5 11 11 0 0 1 0 7.8c.1-1.2.6-2.1 1.4-3l2.2-2.1c.6-.7 1.4-1 2.1-1a3 3 0 0 1 2.2 1L9 3.8l.5.6 1.8 1.8c1.3 1.3 1.3 3 0 4.3l-.6.6zm-.6-3.7L8.4 5.6 7.8 5 6.7 4c-.2-.2-.6-.5-1-.5-.3 0-.6.2-1 .5L2.8 6c-.6.6-.9 1.2-1 2a9 9 0 0 0 .8 3.9 28.2 28.2 0 0 0 14 15 13.8 13.8 0 0 0 5.1 1.4 3 3 0 0 0 2.4-1l1.2-1.3.8-.7c.7-.7.7-1.4 0-2l-3.5-3.5c-.2-.2-.5-.5-1-.5-.3 0-.7.3-.9.5l-2.1 2.1c-.2.2-.5.5-1 .5-.2 0-.4 0-.6-.2h-.1l-.6-.4a23.3 23.3 0 0 1-6.4-5.5C8.7 15.1 8 14 7.6 13v-.1c-.1-.4-.2-.9.3-1.4l1.6-1.6.6-.6c.6-.6.6-1.3 0-2z"/></svg>