<svg xmlns="http://www.w3.org/2000/svg" width="15" height="10"><path fill="#666" fill-rule="evenodd" d="M7.5 2.3A2.7 2.7 0 0 0 4.8 5c0 1.5 1.2 2.7 2.7 2.7 1.5 0 2.7-1.2 2.7-2.7 0-1.5-1.2-2.7-2.7-2.7zm0 4c-.8 0-1.4-.6-1.4-1.3 0-.7.6-1.3 1.4-1.3.7 0 1.4.6 1.4 1.3 0 .7-.7 1.3-1.4 1.3zm6.7-2.9l-3-2.2A6.4 6.4 0 0 0 7.3 0C6.1 0 4.8.4 3.7 1.3L1 3.3H.8C.3 4 0 4.5 0 5c0 .6.3 1.1.8 1.6l3 2.1C4.7 9.6 6 10 7.3 10c1.3 0 2.6-.4 3.7-1.3l3-2v-.1C15 6 15 5.4 15 5c0-.4-.1-1-.8-1.6zm-.9 2.2l-3 2c-.9.7-1.9 1-2.9 1s-2-.3-2.9-1l-2.8-2-.3-.6c0-.2 0-.4.3-.6l2.8-2a5 5 0 0 1 3-1c1 0 2 .3 2.8 1l3 2 .3.6-.3.6z"/></svg>