<svg xmlns="http://www.w3.org/2000/svg" width="18" height="18"><path fill-rule="evenodd" d="M9 18c4.963 0 9-4.038 9-9 0-4.963-4.037-9-9-9S0 4.037 0 9c0 4.962 4.037 9 9 9zM1.196 9.587h2.923c.036 1.071.173 2.108.4 3.068-.69.242-1.325.54-1.886.891a7.778 7.778 0 0 1-1.437-3.959zm1.437-5.133a9.46 9.46 0 0 0 1.886.89 15.713 15.713 0 0 0-.4 3.069H1.196a7.778 7.778 0 0 1 1.437-3.959zm14.171 3.959h-2.923a15.79 15.79 0 0 0-.4-3.069 9.512 9.512 0 0 0 1.886-.89 7.778 7.778 0 0 1 1.437 3.959zm-1.437 5.133a9.514 9.514 0 0 0-1.886-.891c.227-.96.363-2.001.4-3.072h2.923a7.792 7.792 0 0 1-1.437 3.963zm-6.954-1.6a14.16 14.16 0 0 0-2.767.377 14.535 14.535 0 0 1-.353-2.736h3.12v2.359zm0 1.175v3.597c-1.212-.445-2.029-2.039-2.448-3.266a12.953 12.953 0 0 1 2.448-.331zm1.174 3.597v-3.597c.855.036 1.68.148 2.447.331-.418 1.226-1.235 2.821-2.447 3.266zm0-4.772V9.583h3.12a14.578 14.578 0 0 1-.353 2.74 14.17 14.17 0 0 0-2.767-.377zm3.12-3.533h-3.12v-2.36a14.02 14.02 0 0 0 2.767-.377c.198.855.318 1.779.353 2.737zm-3.12-3.534V1.282c1.212.445 2.029 2.039 2.447 3.266-.767.183-1.592.295-2.447.331zM8.413 1.282v3.597a12.953 12.953 0 0 1-2.448-.331C6.383 3.321 7.2 1.727 8.413 1.282zm0 4.771v2.36h-3.12c.035-.958.155-1.882.353-2.737.871.212 1.803.34 2.767.377zm-5.018 8.403a8.28 8.28 0 0 1 1.445-.671c.288.858.691 1.733 1.234 2.473a7.854 7.854 0 0 1-2.679-1.802zm8.531 1.802c.542-.739.945-1.615 1.234-2.473a8.28 8.28 0 0 1 1.445.671 7.854 7.854 0 0 1-2.679 1.802zm2.679-12.714a8.354 8.354 0 0 1-1.445.671c-.289-.858-.692-1.734-1.234-2.473a7.854 7.854 0 0 1 2.679 1.802zM6.074 1.742c-.543.739-.946 1.614-1.234 2.473a8.354 8.354 0 0 1-1.445-.671 7.854 7.854 0 0 1 2.679-1.802z"/></svg>